<svg width="160" height="160" viewBox="0 0 160 160" fill="none" xmlns="http://www.w3.org/2000/svg">
<rect width="160" height="160" rx="21.5" fill="black"/>
<path fill-rule="evenodd" clip-rule="evenodd" d="M30 14.5H41.5H57.5L43.6128 83.4156L37.9999 79.7501L41.5 76.0944V48.25V31.375V31.249L41.3533 31.0766C39.9014 29.3702 38.3471 27.5436 38.5121 27C38.4553 26.8439 39.4553 26.0797 40.3963 25.3606L40.3964 25.3605L40.3966 25.3604C40.8063 25.0473 41.2048 24.7427 41.5 24.5007V24.5L45.25 22H41.5C37.7609 21.989 36.297 21.5737 34.25 20.4677C31.9208 18.8939 31.2165 17.3315 30 14.5ZM43.6129 83.4157L43.6128 83.4156L37.5 113.75L62.75 129.75L71.5 122.361V133.981L68.5 136.5L70.8816 138.5H70.8732L79.75 146L88.6268 138.5H88.6184L91 136.5L88 133.981V122.419L96.25 129.75L122 114L121.97 113.977L122.073 114C121.904 113.895 121.742 113.79 121.586 113.684L120.701 113.008C119.039 111.561 118.264 109.623 117.823 105.25C111.119 104.683 107.646 102.948 101.823 98L101.823 107.943L88 118.32V115C88.1894 114.573 88.5765 114.474 90.25 114.25C88.8162 113.09 88.5664 112.482 88 111V88.69L97.0455 95.6626L121.75 80.5L118 75.74V48.25V31.375V31.2499L118.147 31.0766C119.599 29.3702 121.154 27.5436 120.989 27C121.045 26.8439 120.046 26.0798 119.105 25.3608L119.105 25.3607L119.104 25.3606L119.104 25.3606L119.104 25.3602L119.103 25.3598L119.103 25.3595C118.693 25.0464 118.295 24.742 118 24.5001V24.5H118L114.25 22H118C121.739 21.989 123.203 21.5737 125.25 20.4677C127.579 18.8939 128.283 17.3315 129.5 14.5H118H102H98L102 22.5V73.6967L88 84.1967V22.5L92 14.5H88H71.5H67.5L71.5 22.5V84.302L57.5 74.0446V22.5L61.5 14.5H57.5L43.6129 83.4157ZM43.6129 83.4157L37.5002 113.75L39.4366 112.208C40.7162 110.807 41.3622 108.844 41.75 105C48.4536 104.433 51.9269 102.698 57.75 97.75L57.75 108.062L71.5 118.375V114.694C71.2167 114.503 70.6759 114.407 69.5 114.25C70.7079 113.272 71.0755 112.687 71.5 111.641V88.8125L62.4999 95.75L43.6129 83.4157Z" fill="white"/>
</svg>
