<svg width="110" height="174" viewBox="0 0 110 174" fill="none" xmlns="http://www.w3.org/2000/svg">
<circle cx="55" cy="55" r="54.5" fill="#383838" stroke="black"/>
<rect x="20.5" y="30.5" width="69" height="44" rx="4.5" fill="white" stroke="black"/>
<path d="M57.9118 41.1271C56.2323 39.7016 53.7677 39.7016 52.0882 41.1271L22.4053 66.3191C19.2117 69.0295 21.1284 74.25 25.3171 74.25L84.6829 74.25C88.8716 74.25 90.7883 69.0295 87.5947 66.3191L57.9118 41.1271Z" stroke="black"/>
<path d="M57.9459 63.7873C56.255 65.2517 53.745 65.2517 52.0541 63.7873L22.1639 37.9017C19.0143 35.1741 20.9434 30 25.1099 30L84.8901 30C89.0566 30 90.9856 35.1741 87.8361 37.9017L57.9459 63.7873Z" fill="white" stroke="black"/>
<path d="M55 173.012L60.7735 163.012H49.2265L55 173.012ZM54 131L54 164.012H56L56 131H54Z" fill="#212121"/>
</svg>
