<svg width="199" height="263" viewBox="0 0 199 263" fill="none" xmlns="http://www.w3.org/2000/svg">
<path fill-rule="evenodd" clip-rule="evenodd" d="M0 0H23H55H63L55 16V119.089L83 139.604V16L75 0H83H116H124L116 16V139.393L144 118.393V16L136 0H144H176H199C196.567 5.66306 195.158 8.78787 190.5 11.9354C186.406 14.1473 183.478 14.978 176 15H168.5L176 20C176.59 20.4844 177.388 21.0942 178.209 21.7212C180.091 23.1594 182.091 24.6879 181.977 25C182.307 26.0871 179.199 29.7405 176.295 33.1534L176 33.4998V33.75V67.5V122.48L183.5 132L134.091 162.325L116 148.38V193C117.133 195.964 117.632 197.179 120.5 199.5C117.153 199.947 116.379 200.147 116 201V207.64L143.646 186.885V167C155.292 176.896 162.238 180.365 175.646 181.5C176.528 190.246 178.078 194.123 181.403 197.016L183.172 198.368C183.484 198.58 183.808 198.79 184.146 199L183.94 198.954L184 199L132.5 230.5L116 215.837V238.961L122 244L117.237 248H117.254L99.5 263L81.7465 248H81.7631L77 244L83 238.961V215.722L65.5001 230.5L15.0001 198.5L15.0006 198.5L18.8731 195.416C21.4325 192.613 22.7243 188.688 23.5 181C36.9071 179.865 43.8537 176.396 55.4999 166.5L55.4999 187.125L83 207.75V200.388C82.4333 200.006 81.3518 199.814 79 199.5C81.4158 197.545 82.151 196.374 83 194.282V148.625L64.9998 162.5L27.2258 137.831L15.9999 130.5L23 123.189V67.5V33.75V33.498L22.7067 33.1533C19.8028 29.7405 16.6942 26.0871 17.0242 25C16.9106 24.6879 18.9107 23.1594 20.7926 21.7212L20.795 21.7194L20.7978 21.7173C21.6156 21.0923 22.4108 20.4845 23 20.0014V20L30.5 15H23C15.5219 14.978 12.5939 14.1473 8.5 11.9354C3.84158 8.78787 2.43306 5.66306 0 0Z" fill="white"/>
</svg>
