<svg width="258" height="102" viewBox="0 0 258 102" fill="none" xmlns="http://www.w3.org/2000/svg">
<path d="M42 38.5L51.5 37V65.5L42 70.5V38.5Z" fill="white"/>
<rect x="21" width="10" height="68" fill="white"/>
<path d="M24.5 57L42 70.5L35 76.5L20 67L24.5 57Z" fill="white"/>
<path d="M41.5 31.9993C41.4994 32.0191 44.2044 34.5451 46.5 35.5C48.3386 36.2648 51.5 36.9993 51.5 36.9993L42 38.4993L38 32.9993L41.5 31.9993Z" fill="white"/>
<path d="M41 0H52H53.5C52.5616 0.936402 52.2142 1.57536 52 3V6V12V18V21C52.4506 21.7975 52.7666 22.1454 53.5 22.5C52.7352 22.8817 52.3835 23.1835 52 24H41V0Z" fill="white"/>
<path d="M34 28.5L41.5 23.5L50 24L35 33H34V28.5Z" fill="white"/>
<path d="M31 29.4998C31.9114 30.0326 33.4861 28.7009 34 28.5L35 32.9999L31 32.9998V29.4998Z" fill="white"/>
<path d="M35 0H41V4H35V2C34.9074 1.0108 34.6805 0.578971 34 0H35Z" fill="white"/>
<path d="M5.50004 9.5C8.58167 6.15094 12.314 3.37554 18 3C12.6877 7.78198 8.04399 12.1283 14.0003 20C9.97837 19.9338 7.86717 19.6706 5.50032 17C4.60735 13.8384 4.64599 12.5674 5.50004 9.5Z" fill="white"/>
<path d="M0 0H21V3H3L0 0Z" fill="white"/>
<circle cx="34.5" cy="79.5" r="1.5" fill="white"/>
<path d="M34.5 84L37.5 86.5L34.5 92L31.5 86.5L34.5 84Z" fill="white"/>
<path d="M14.5 28.5L18.5 33L14.5 37.5L10.5 33L14.5 28.5Z" fill="white"/>
<path d="M15 41L19 45.5L15 50L11 45.5L15 41Z" fill="white"/>
<path d="M56 19H93C92.5533 20.4053 91.3141 21.2839 91 23H59C58.2182 21.1015 56.475 20.1506 56 19Z" fill="white"/>
<path d="M81 23H91V65C92.5218 67.3018 93.6443 68.5456 95.5 71C87.8072 70.0303 84.2378 68.9999 81 65V23Z" fill="white"/>
<rect x="61" y="43" width="10" height="20" fill="white"/>
<path d="M64 50.5L80.5 65C77.5714 67.1494 75.8361 68.2627 72.5 70L59 61.5C60.6173 60.1963 61.9695 55.4878 64 50.5Z" fill="white"/>
<path d="M81.5 33.5V36.5L71 43H61L81.5 33.5Z" fill="white"/>
<path d="M64.5 23H71V29.5L61 35.5C60.8755 32.1745 60.332 30.1404 59.5 26L64.5 23Z" fill="white"/>
<rect x="103" y="30" width="11" height="32" fill="white"/>
<path d="M102 26C103.897 25.471 104.871 25.0117 106.5 24C104.155 24.3496 102.845 24.3203 100.5 24C99.6585 21.7956 98.9488 20.7413 97.5 19H105C105.122 19.5079 105.239 19.7168 105.5 20H109V19H115C113.845 21.6793 113.393 23.2079 113 26C115.533 22.7763 117.634 21.3938 121.5 19H135C133.861 19.7872 133.364 20.3035 133 21.5V28.5C131.308 28.3341 130.434 28.3426 129 28.5C126.536 29.3264 125.789 30.0987 124.5 31.5H123V23C122.256 22.8954 121.8 22.9092 121 23C118.046 25.3951 116.508 26.9483 114 30H103L102 26Z" fill="white"/>
<path d="M108 53.5L117.5 62L110 71L101 61L108 53.5Z" fill="white"/>
<path d="M138 8C137.675 7.22837 137.308 6.9278 136.5 6.5C138.694 6.01197 139.875 5.58242 142 4.5V3.5C139.622 3.88307 138.286 3.89124 136 3.5C134.354 2.20628 133.719 1.43667 133 0H143C143.332 0.312899 143.544 0.433295 144 0.5H147.5C147.806 0.295474 147.907 0.187979 148 0H150.5C149.568 0.993984 149.254 1.77506 149 3.5V8V58.8375L153 62L145.5 70L136.5 61.5L138 58.8375V8Z" fill="white"/>
<path d="M161 27.5H159C159.663 26.4377 160.109 25.893 161 25C162.512 24.4107 163.396 24.1766 165 24V23C161.001 22.8821 159.132 21.0598 157 20.5C156.751 19.9332 156.678 19.6075 156.731 19H172H192.5C191.785 20.0782 191.436 20.7187 191 22C190.554 24.9502 190.722 26.7659 191 30C189.366 31.0195 188.379 31.5387 186 32C184.988 32.0849 184.453 32.226 183.5 32.5C178.36 35.4098 175.893 38.051 172 44C172.066 41.5209 172.147 40.2446 172.5 38.5C175.286 34.538 176.949 32.6176 180 29.5C180.802 26.571 180.614 24.9292 180 22C176.798 21.7825 175.085 21.8869 172 22V27V57.5C174.319 60.2077 175.728 61.4413 178.5 63C179.297 63.2204 179.792 63.1883 180.5 63V56C181.344 56.2956 181.836 56.3165 183.5 56.5C186.205 54.8272 187.545 52.9712 190 50V59.5C190.686 60.1663 190.639 60.3368 191.5 60.5L190 61L181.5 66.5L175 71L160 61.5C160.756 60.3336 160.957 59.5567 161 58V27.5Z" fill="white"/>
<path fill-rule="evenodd" clip-rule="evenodd" d="M194 19H201.397V21.6628V22.9942V23.7338L201.397 23.7338C198.992 23.7269 198.05 23.4647 196.734 22.7667C195.235 21.7734 194.782 20.7872 194 19ZM250 19H240.312V56.3637L231.307 62.9911V19H220.693V63.0576L211.688 56.5833V19H201.397V23.7338L203.809 23.7338L201.397 25.3118V25.3122C201.207 25.465 200.951 25.6573 200.687 25.8549L200.687 25.855C200.082 26.3089 199.438 26.7912 199.475 26.8897C199.369 27.2328 200.369 28.3858 201.302 29.4628L201.303 29.4628L201.397 29.5717V29.6511V40.3023V57.8773L199.146 60.1845L214.904 70.2834L220.693 65.9045V80.3133C220.42 80.9737 220.184 81.343 219.407 81.9601C220.163 82.0593 220.511 82.1198 220.693 82.2405V84.5636L211.849 78.0545L211.849 71.5456C208.104 74.6688 205.87 75.7635 201.558 76.1216C201.308 78.5481 200.893 79.787 200.069 80.6715L198.825 81.6441L198.824 81.6445L198.824 81.6445L215.065 91.7433L220.693 87.0796V94.4136L218.764 96.0038L220.296 97.2662H220.29L226 102L231.71 97.2662H231.704L233.236 96.0038L231.307 94.4136V87.116L236.613 91.7433L253.176 81.8022L253.157 81.7879L253.223 81.8022C253.114 81.7362 253.01 81.67 252.91 81.6031L252.34 81.1756C251.271 80.2625 250.773 79.0389 250.489 76.2794C246.177 75.9213 243.943 74.8266 240.197 71.7034V77.979L231.307 84.5291V82.4332C231.428 82.1641 231.678 82.1011 232.754 81.9601C231.832 81.2278 231.671 80.8443 231.307 79.9092V65.8272L237.125 70.2281L253.015 60.6578L250.603 57.6536V40.3023V29.6511V29.572L250.698 29.4628L250.698 29.4628C251.632 28.3858 252.631 27.2328 252.525 26.8897C252.562 26.7912 251.919 26.3089 251.313 25.855C251.05 25.6572 250.793 25.4648 250.603 25.312V25.3118L248.191 23.7338L250 23.7338C250 23.7338 250 23.7338 250 23.7338H250.603V23.7259C252.574 23.6773 253.463 23.4032 254.663 22.7667C256.162 21.7734 256.614 20.7872 257.397 19H250.603H250ZM220.693 19.0001L218.121 19.0001L220.693 24.0495V19.0001ZM237.739 19.0001L240.311 19.0001V24.0495L237.739 19.0001ZM231.307 19.0001H233.879L231.307 24.0495V19.0001ZM214.261 19.0001H211.689V24.0495L214.261 19.0001Z" fill="white"/>
</svg>
