<svg width="26" height="32" viewBox="0 0 26 32" fill="none" xmlns="http://www.w3.org/2000/svg">
<path d="M13.1622 27.8608C6.89118 24.1858 2.33955 11.3694 0.84761 5.42065C0.560146 2.47794 2.68032 1.29585 5.68888 0.308009C8.69744 -0.679835 9.4291 2.36 9.78745 2.84976C10.1458 3.33952 11.8667 8.24126 10.2765 9.12783C8.6864 10.0144 8.07051 10.7025 8.34302 11.5849C8.38195 11.711 8.38225 11.7531 8.36596 11.7531C8.61308 12.131 9.30555 13.2647 11.0381 16.2883C15.0808 23.3433 15.8683 21.8699 16.3125 21.967C16.7567 22.0641 17.5443 20.5907 19.3211 20.9792C21.0979 21.3676 24.0505 24.8931 24.8531 25.4799C25.6556 26.0668 26.1148 28.2242 22.4045 30.2929C18.6942 32.3615 21.001 32.4545 13.1622 27.8608Z" fill="#2B2B2B"/>
</svg>
