<svg width="55" height="53" viewBox="0 0 55 53" fill="none" xmlns="http://www.w3.org/2000/svg">
<path d="M4.72742 10.5287L11.0912 4.18503L16.5914 9.51544L18.7733 8.59033L20.8642 7.53306L22.5007 7.13658V0H31.7736V7.13658L33.8192 7.75332L35.6829 8.59033L37.5011 9.51544L40.2057 6.85023L41.558 5.51763L42.9103 4.18503L46.2741 7.35684L49.6378 10.5287L44.3195 15.771L45.0013 16.9604L45.9104 18.9428L46.7741 21.3216H54.047L54.2743 30.0882H46.7741L46.3195 31.3657L45.5013 33.7886L44.3195 35.9032L49.6378 41.3217L43.0922 47.8856L37.5011 42.3789L35.6829 43.3041L33.6828 44.1851L31.7736 44.7137V52.2028H22.5461V44.7137L22.2279 44.6256L20.0006 43.9208L18.4096 43.3041L16.8641 42.3789L11.0912 47.8856L4.72742 41.3217L10.0003 35.9032L8.77299 33.7886L7.95478 31.9384L7.40931 30.0882H6.32183e-06V21.3216H7.63659L7.95478 20.0441L8.77299 17.8855L10.0003 15.771L4.72742 10.5287Z" fill="#474838"/>
<circle cx="27" cy="26" r="13" fill="#ACAD9A"/>
</svg>
