<svg width="49" height="46" viewBox="0 0 49 46" fill="none" xmlns="http://www.w3.org/2000/svg">
<path d="M30.4095 22.9398L31.6427 22.5374L32.4646 22.5374L44.7931 34.2086L46.026 35.416L46.4369 36.6234L46.4369 38.2332L46.4369 39.4405L45.615 41.0504L44.3822 42.2577L43.1494 43.0626L41.5056 43.4651L39.4508 43.4651L37.6109 41.8403L25.4785 30.184L25.4785 29.7816L25.4785 28.5742L27.1223 27.7693L28.3548 26.5619L29.5876 24.9521L30.4095 22.9398Z" fill="#474838"/>
<path d="M16.8487 12.0737L27.9443 23.7448V24.9522L27.1224 25.7571L26.3005 26.562L26.7115 25.7571V25.3547L26.3005 24.5498L24.6567 22.9399L22.191 20.1228L19.7254 17.708H18.9035L17.6706 18.1105L14.3831 14.8909L16.8487 12.0737Z" fill="#474838"/>
<path d="M6.57515 0.80492L6.98609 0.402466H7.39704H8.21893H9.86272L12.7393 1.20737L14.7941 3.21965L16.0269 4.82946L16.4379 6.84174V9.65892L15.205 12.0736L13.5612 14.0859L11.9175 15.2933L9.86272 16.0982H7.39704L5.34231 15.6957L3.28757 14.4884L1.23284 12.0736L0.410947 10.0614L0 8.85401V8.0491L0.410947 7.24419L0.821893 6.84174H1.64379L5.75325 10.8663H7.39704L8.62988 9.65892L10.6846 7.64664V5.63437L6.1642 1.20737L6.57515 0.80492Z" fill="#474838"/>
<path d="M19.3145 19.3178L22.6021 22.135L25.4787 25.3546L25.8896 25.7571V26.1595L25.0678 26.9644L24.2459 27.3669L23.8349 28.1718V30.5865L23.424 31.7939L11.5065 42.6602L9.45178 43.4651H7.39705L4.93137 42.6602L2.87664 40.6479L1.6438 38.2332V35.0135L2.46569 33.0013L10.6846 24.9522L13.5613 22.135L14.7941 21.7325H16.0269H17.2598L17.6707 21.3301V20.5252L18.0817 19.7203L18.9036 19.3178H19.3145Z" fill="#474838"/>
<path d="M39.0398 5.63436L39.8617 2.41473L41.0945 1.20736L47.2587 0L48.4916 1.20736L46.4369 6.43927L45.204 7.64663L41.5055 8.04909L27.5333 21.3301L25.0676 18.9154L39.0398 5.63436Z" fill="#474838"/>
</svg>
