<svg width="352" height="86" viewBox="0 0 352 86" fill="none" xmlns="http://www.w3.org/2000/svg">
<path d="M0 4H91.8703V54.2594L61.8452 27.9874L38.3473 49.0377V35.3305H20.3975V64.7029L0 82V4Z" fill="#B1C734"/>
<path d="M132.116 49L114.116 31.0333V48H108.516V17L126.516 34.9333V18H132.116V49ZM153.943 48.6C151.743 48.6 149.687 48.2 147.776 47.4C145.865 46.5778 144.176 45.4556 142.71 44.0333C141.265 42.6111 140.132 40.9556 139.31 39.0667C138.487 37.1778 138.076 35.1556 138.076 33C138.076 30.8444 138.487 28.8222 139.31 26.9333C140.132 25.0444 141.265 23.3889 142.71 21.9667C144.176 20.5444 145.865 19.4333 147.776 18.6333C149.687 17.8111 151.743 17.4 153.943 17.4C156.143 17.4 158.198 17.8111 160.11 18.6333C162.021 19.4333 163.698 20.5444 165.143 21.9667C166.61 23.3889 167.754 25.0444 168.576 26.9333C169.398 28.8222 169.81 30.8444 169.81 33C169.81 35.1556 169.398 37.1778 168.576 39.0667C167.754 40.9556 166.61 42.6111 165.143 44.0333C163.698 45.4556 162.021 46.5778 160.11 47.4C158.198 48.2 156.143 48.6 153.943 48.6ZM153.943 42.8C155.743 42.8 157.365 42.3667 158.81 41.5C160.254 40.6111 161.398 39.4222 162.243 37.9333C163.11 36.4444 163.543 34.8 163.543 33C163.543 31.1778 163.11 29.5333 162.243 28.0667C161.398 26.5778 160.254 25.4 158.81 24.5333C157.365 23.6444 155.743 23.2 153.943 23.2C152.143 23.2 150.51 23.6444 149.043 24.5333C147.598 25.4 146.454 26.5778 145.61 28.0667C144.765 29.5333 144.343 31.1778 144.343 33C144.343 34.8 144.765 36.4444 145.61 37.9333C146.454 39.4222 147.598 40.6111 149.043 41.5C150.51 42.3667 152.143 42.8 153.943 42.8ZM175.88 48V18H185.047C187.224 18 189.08 18.4333 190.613 19.3C192.169 20.1667 193.358 21.3222 194.18 22.7667C195.002 24.1889 195.413 25.7556 195.413 27.4667C195.413 29.0222 195.069 30.4333 194.38 31.7C193.713 32.9667 192.758 34.0111 191.513 34.8333L199.447 48H192.88L186.213 36.6H181.68V48H175.88ZM181.68 31.6H184.913C186.002 31.6 186.891 31.4 187.58 31C188.269 30.5778 188.78 30.0556 189.113 29.4333C189.447 28.7889 189.613 28.1333 189.613 27.4667C189.613 26.2889 189.18 25.3222 188.313 24.5667C187.447 23.7889 186.313 23.4 184.913 23.4H181.68V31.6ZM199.268 23.4V18H220.135V23.4H212.801V48H206.601V23.4H199.268ZM225.7 48V18H231.5V27.6H240.167V18H245.967V48H240.167V33H231.5V48H225.7ZM268.132 48.6C265.865 48.6 263.743 48.2222 261.765 47.4667C259.81 46.6889 258.087 45.6 256.599 44.2C255.132 42.8 253.987 41.1556 253.165 39.2667C252.343 37.3778 251.932 35.3111 251.932 33.0667C251.932 30.8222 252.343 28.7556 253.165 26.8667C253.987 24.9556 255.132 23.3 256.599 21.9C258.087 20.4778 259.799 19.3778 261.732 18.6C263.687 17.8 265.799 17.4 268.065 17.4C270.11 17.4 272.021 17.7222 273.799 18.3667C275.576 19.0111 277.154 19.9222 278.532 21.1L276.832 27.9667C275.987 26.5889 274.821 25.4333 273.332 24.5C271.865 23.5444 270.11 23.0667 268.065 23.0667C266.176 23.0667 264.487 23.5 262.999 24.3667C261.51 25.2333 260.332 26.4222 259.465 27.9333C258.621 29.4444 258.199 31.1556 258.199 33.0667C258.199 35.0222 258.621 36.7556 259.465 38.2667C260.332 39.7556 261.51 40.9333 262.999 41.8C264.487 42.6444 266.165 43.0667 268.032 43.0667C268.943 43.0667 269.787 42.9778 270.565 42.8C271.343 42.6222 272.043 42.3556 272.665 42V36.2H266.565V31.2H278.132V45.7667C276.754 46.6556 275.21 47.3556 273.499 47.8667C271.81 48.3556 270.021 48.6 268.132 48.6ZM282.148 48L295.381 16.9333H295.448L308.681 48H302.648L300.415 42.6667H290.215L287.981 48H282.148ZM292.215 37.8667H298.415L297.115 34.8C296.759 33.9778 296.426 33.1889 296.115 32.4333C295.826 31.6556 295.548 30.7556 295.281 29.7333C295.037 30.7333 294.77 31.6222 294.481 32.4C294.193 33.1778 293.87 33.9778 293.515 34.8L292.215 37.8667ZM307.452 23.4V18H328.319V23.4H320.985V48H314.785V23.4H307.452ZM333.884 48V18H349.884V23.2H339.684V27.8H347.55V32.8H339.684V42.6H349.884V48H333.884Z" fill="white"/>
<path d="M108.802 75V55H114.38C115.728 55 116.884 55.2741 117.847 55.8222C118.824 56.3556 119.572 57.0667 120.091 57.9556C120.609 58.8444 120.869 59.8222 120.869 60.8889C120.869 61.9556 120.602 62.9185 120.069 63.7778C119.535 64.637 118.787 65.3037 117.824 65.7778L123.824 75H120.158L114.758 66.6H112.002V75H108.802ZM112.002 63.8667H114.335C115.121 63.8667 115.758 63.7185 116.247 63.4222C116.75 63.1259 117.121 62.7481 117.358 62.2889C117.609 61.8296 117.735 61.363 117.735 60.8889C117.735 60.0296 117.424 59.3259 116.802 58.7778C116.18 58.2148 115.358 57.9333 114.335 57.9333H112.002V63.8667ZM134.313 75.4C132.861 75.4 131.498 75.1333 130.224 74.6C128.95 74.0519 127.831 73.3037 126.868 72.3556C125.92 71.4074 125.172 70.3037 124.624 69.0444C124.076 67.7852 123.802 66.437 123.802 65C123.802 63.563 124.076 62.2148 124.624 60.9556C125.172 59.6963 125.92 58.5926 126.868 57.6444C127.831 56.6963 128.95 55.9556 130.224 55.4222C131.498 54.8741 132.861 54.6 134.313 54.6C135.779 54.6 137.142 54.8741 138.402 55.4222C139.676 55.9556 140.794 56.6963 141.757 57.6444C142.72 58.5926 143.468 59.6963 144.002 60.9556C144.55 62.2148 144.824 63.563 144.824 65C144.824 66.437 144.55 67.7852 144.002 69.0444C143.468 70.3037 142.72 71.4074 141.757 72.3556C140.794 73.3037 139.676 74.0519 138.402 74.6C137.142 75.1333 135.779 75.4 134.313 75.4ZM134.313 72.2667C135.646 72.2667 136.846 71.9407 137.913 71.2889C138.994 70.637 139.846 69.763 140.468 68.6667C141.105 67.5556 141.424 66.3333 141.424 65C141.424 63.6519 141.105 62.4296 140.468 61.3333C139.846 60.237 138.994 59.363 137.913 58.7111C136.846 58.0593 135.646 57.7333 134.313 57.7333C132.979 57.7333 131.772 58.0593 130.691 58.7111C129.624 59.363 128.772 60.237 128.135 61.3333C127.513 62.4296 127.202 63.6519 127.202 65C127.202 66.3333 127.513 67.5556 128.135 68.6667C128.772 69.763 129.624 70.637 130.691 71.2889C131.772 71.9407 132.979 72.2667 134.313 72.2667ZM157.235 75.4C155.783 75.4 154.42 75.1333 153.146 74.6C151.872 74.0519 150.754 73.3037 149.791 72.3556C148.843 71.4074 148.095 70.3037 147.546 69.0444C146.998 67.7852 146.724 66.437 146.724 65C146.724 63.563 146.998 62.2148 147.546 60.9556C148.095 59.6963 148.843 58.5926 149.791 57.6444C150.754 56.6963 151.872 55.9556 153.146 55.4222C154.42 54.8741 155.783 54.6 157.235 54.6C158.702 54.6 160.065 54.8741 161.324 55.4222C162.598 55.9556 163.717 56.6963 164.68 57.6444C165.643 58.5926 166.391 59.6963 166.924 60.9556C167.472 62.2148 167.746 63.563 167.746 65C167.746 66.437 167.472 67.7852 166.924 69.0444C166.391 70.3037 165.643 71.4074 164.68 72.3556C163.717 73.3037 162.598 74.0519 161.324 74.6C160.065 75.1333 158.702 75.4 157.235 75.4ZM157.235 72.2667C158.569 72.2667 159.769 71.9407 160.835 71.2889C161.917 70.637 162.769 69.763 163.391 68.6667C164.028 67.5556 164.346 66.3333 164.346 65C164.346 63.6519 164.028 62.4296 163.391 61.3333C162.769 60.237 161.917 59.363 160.835 58.7111C159.769 58.0593 158.569 57.7333 157.235 57.7333C155.902 57.7333 154.695 58.0593 153.613 58.7111C152.546 59.363 151.695 60.237 151.058 61.3333C150.435 62.4296 150.124 63.6519 150.124 65C150.124 66.3333 150.435 67.5556 151.058 68.6667C151.695 69.763 152.546 70.637 153.613 71.2889C154.695 71.9407 155.902 72.2667 157.235 72.2667ZM170.847 75V55H181.113V57.8H174.047V61.5333H180.447V64.3333H174.047V75H170.847ZM183.75 75V55H187.084V75H183.75ZM207.633 75.6667L194.633 62.1778V75H191.567V54.3333L204.567 67.8V55H207.633V75.6667ZM221.349 75.4C219.867 75.4 218.482 75.1407 217.193 74.6222C215.904 74.0889 214.771 73.3556 213.793 72.4222C212.83 71.4741 212.075 70.3704 211.527 69.1111C210.993 67.8519 210.727 66.4889 210.727 65.0222C210.727 63.5556 210.993 62.1926 211.527 60.9333C212.075 59.6741 212.83 58.5704 213.793 57.6222C214.771 56.6741 215.897 55.9333 217.171 55.4C218.46 54.8667 219.845 54.6 221.327 54.6C222.719 54.6 224.023 54.837 225.238 55.3111C226.453 55.7852 227.527 56.4519 228.46 57.3111L227.527 61.1333C226.904 60.1259 226.06 59.3037 224.993 58.6667C223.927 58.0148 222.704 57.6889 221.327 57.6889C219.964 57.6889 218.741 58.0148 217.66 58.6667C216.579 59.3185 215.719 60.2 215.082 61.3111C214.445 62.4074 214.127 63.6444 214.127 65.0222C214.127 66.4 214.438 67.6444 215.06 68.7556C215.697 69.8519 216.556 70.7259 217.638 71.3778C218.734 72.0296 219.956 72.3556 221.304 72.3556C222.016 72.3556 222.69 72.2741 223.327 72.1111C223.964 71.9481 224.541 71.7185 225.06 71.4222V66.8667H220.282V64.0667H228.104V73.3333C227.201 74 226.164 74.5111 224.993 74.8667C223.838 75.2222 222.623 75.4 221.349 75.4ZM242.693 75.3556C241.493 75.3556 240.374 75.1259 239.337 74.6667C238.315 74.2074 237.5 73.6444 236.893 72.9778L237.804 69.2222C238.278 70.0815 238.959 70.8296 239.848 71.4667C240.737 72.1037 241.722 72.4222 242.804 72.4222C243.722 72.4222 244.47 72.1481 245.048 71.6C245.626 71.037 245.915 70.3556 245.915 69.5556C245.915 68.9333 245.767 68.4222 245.47 68.0222C245.189 67.6222 244.855 67.3037 244.47 67.0667C244.085 66.8148 243.767 66.6296 243.515 66.5111L241.115 65.3111C240.581 65.0296 240.018 64.6815 239.426 64.2667C238.833 63.8519 238.33 63.3111 237.915 62.6444C237.5 61.963 237.293 61.1037 237.293 60.0667C237.293 59 237.537 58.0593 238.026 57.2444C238.515 56.4296 239.204 55.7926 240.093 55.3333C240.981 54.8741 242.011 54.6444 243.181 54.6444C244.307 54.6444 245.307 54.837 246.181 55.2222C247.055 55.5926 247.752 55.9852 248.27 56.4L247.381 60.1111C246.907 59.4148 246.278 58.8148 245.493 58.3111C244.722 57.7926 243.9 57.5333 243.026 57.5333C242.226 57.5333 241.596 57.763 241.137 58.2222C240.678 58.6667 240.448 59.2148 240.448 59.8667C240.448 60.3259 240.552 60.7185 240.759 61.0444C240.981 61.3704 241.248 61.6444 241.559 61.8667C241.885 62.0741 242.204 62.2593 242.515 62.4222L244.959 63.6444C245.3 63.8074 245.7 64.037 246.159 64.3333C246.633 64.6148 247.093 64.9778 247.537 65.4222C247.981 65.8667 248.344 66.4074 248.626 67.0444C248.922 67.6815 249.07 68.4444 249.07 69.3333C249.07 70.4889 248.796 71.5259 248.248 72.4444C247.715 73.3481 246.974 74.0593 246.026 74.5778C245.078 75.0963 243.967 75.3556 242.693 75.3556ZM251.975 75V55H262.242V57.8667H255.175V61.5333H260.687V64.3333H255.175V72.0667H262.242V75H251.975ZM265.402 75V55H270.98C272.328 55 273.484 55.2741 274.447 55.8222C275.424 56.3556 276.172 57.0667 276.691 57.9556C277.21 58.8444 277.469 59.8222 277.469 60.8889C277.469 61.9556 277.202 62.9185 276.669 63.7778C276.135 64.637 275.387 65.3037 274.424 65.7778L280.424 75H276.758L271.358 66.6H268.602V75H265.402ZM268.602 63.8667H270.935C271.721 63.8667 272.358 63.7185 272.847 63.4222C273.35 63.1259 273.721 62.7481 273.958 62.2889C274.21 61.8296 274.335 61.363 274.335 60.8889C274.335 60.0296 274.024 59.3259 273.402 58.7778C272.78 58.2148 271.958 57.9333 270.935 57.9333H268.602V63.8667ZM286.87 75.6667L278.648 55H282.092L286.07 65.1333C286.248 65.5481 286.41 65.9556 286.559 66.3556C286.707 66.7407 286.855 67.1852 287.003 67.6889C287.136 67.2 287.277 66.763 287.425 66.3778C287.573 65.9926 287.729 65.5778 287.892 65.1333L291.87 55H295.136L286.914 75.6667H286.87ZM297.349 75V55H300.683V75H297.349ZM314.477 75.4C313.025 75.4 311.662 75.1333 310.388 74.6C309.114 74.0519 307.995 73.3037 307.032 72.3556C306.069 71.4074 305.314 70.3037 304.765 69.0444C304.232 67.7852 303.965 66.437 303.965 65C303.965 63.563 304.232 62.2148 304.765 60.9556C305.314 59.6963 306.069 58.5926 307.032 57.6444C307.995 56.6963 309.114 55.9556 310.388 55.4222C311.662 54.8741 313.025 54.6 314.477 54.6C315.839 54.6 317.121 54.837 318.321 55.3111C319.536 55.7852 320.61 56.4519 321.543 57.3111L320.61 61.1778C320.002 60.1704 319.165 59.3481 318.099 58.7111C317.047 58.0593 315.862 57.7333 314.543 57.7333C313.21 57.7333 312.002 58.0593 310.921 58.7111C309.854 59.363 309.002 60.237 308.365 61.3333C307.743 62.4296 307.432 63.6519 307.432 65C307.432 66.3333 307.743 67.5556 308.365 68.6667C309.002 69.763 309.854 70.637 310.921 71.2889C312.002 71.9407 313.21 72.2667 314.543 72.2667C315.862 72.2667 317.047 71.9407 318.099 71.2889C319.165 70.637 320.002 69.8148 320.61 68.8222L321.543 72.6889C320.61 73.5333 319.536 74.2 318.321 74.6889C317.121 75.163 315.839 75.4 314.477 75.4ZM324.182 75V55H334.448V57.8667H327.382V61.5333H332.893V64.3333H327.382V72.0667H334.448V75H324.182ZM342.275 75.3556C341.075 75.3556 339.956 75.1259 338.919 74.6667C337.897 74.2074 337.082 73.6444 336.475 72.9778L337.386 69.2222C337.86 70.0815 338.542 70.8296 339.431 71.4667C340.319 72.1037 341.305 72.4222 342.386 72.4222C343.305 72.4222 344.053 72.1481 344.631 71.6C345.208 71.037 345.497 70.3556 345.497 69.5556C345.497 68.9333 345.349 68.4222 345.053 68.0222C344.771 67.6222 344.438 67.3037 344.053 67.0667C343.668 66.8148 343.349 66.6296 343.097 66.5111L340.697 65.3111C340.164 65.0296 339.601 64.6815 339.008 64.2667C338.416 63.8519 337.912 63.3111 337.497 62.6444C337.082 61.963 336.875 61.1037 336.875 60.0667C336.875 59 337.119 58.0593 337.608 57.2444C338.097 56.4296 338.786 55.7926 339.675 55.3333C340.564 54.8741 341.594 54.6444 342.764 54.6444C343.89 54.6444 344.89 54.837 345.764 55.2222C346.638 55.5926 347.334 55.9852 347.853 56.4L346.964 60.1111C346.49 59.4148 345.86 58.8148 345.075 58.3111C344.305 57.7926 343.482 57.5333 342.608 57.5333C341.808 57.5333 341.179 57.763 340.719 58.2222C340.26 58.6667 340.031 59.2148 340.031 59.8667C340.031 60.3259 340.134 60.7185 340.342 61.0444C340.564 61.3704 340.831 61.6444 341.142 61.8667C341.468 62.0741 341.786 62.2593 342.097 62.4222L344.542 63.6444C344.882 63.8074 345.282 64.037 345.742 64.3333C346.216 64.6148 346.675 64.9778 347.119 65.4222C347.564 65.8667 347.927 66.4074 348.208 67.0444C348.505 67.6815 348.653 68.4444 348.653 69.3333C348.653 70.4889 348.379 71.5259 347.831 72.4444C347.297 73.3481 346.556 74.0593 345.608 74.5778C344.66 75.0963 343.549 75.3556 342.275 75.3556Z" fill="#B1C734"/>
</svg>
