<svg width="47" height="46" viewBox="0 0 47 46" fill="none" xmlns="http://www.w3.org/2000/svg">
<path d="M22.2292 14.0215L28.385 8.20774V6.83978L28.556 5.47182L29.24 3.93287L30.095 2.56492L31.463 1.53895L33.0019 0.854972L35.0538 0.170994L37.9607 0L39.1577 0.341989L39.6707 0.854972L39.8417 1.53895L39.6707 2.05193L35.7378 5.98481L36.2508 7.86575L36.5928 8.20774L38.8157 9.2337L38.9867 9.06271L42.0646 6.1558L42.9196 5.47182H43.6036L44.1165 5.64282L44.8005 6.3268L44.6295 7.69475L44.1165 10.2597L43.0906 12.1406L41.7226 13.8506L39.1577 15.0475L36.7638 15.3895L35.2248 15.2185L34.0279 14.8765L29.753 18.9804L29.069 18.4674L28.2141 18.1254L27.3591 17.9544H26.8461L26.3331 18.1254L22.2292 14.0215Z" fill="#474838"/>
<path d="M11.9696 13.3376L11.4566 13.8506H11.1146L10.7727 13.6796L9.91768 12.8246L9.4047 12.6536H8.37873L7.86575 12.9956L7.69475 13.6796V14.5346L7.86575 14.8766L5.30083 17.2705H4.61685L4.10387 16.9285L0.170994 12.8246L0 12.1407L0.341989 11.4567L2.39392 9.23374L3.0779 9.40474H4.27486L4.61685 9.06275V8.37877L4.44586 7.18181V7.01082L9.2337 2.56496L12.4826 1.197L15.5605 0.684021L18.6384 0.855015L23.0843 1.70999L23.7682 2.22297L23.9392 2.90695L23.5972 3.59093L23.0843 3.76192H21.7163L22.7423 4.10391L23.2552 4.4459L23.4262 4.95888L23.0843 5.64286L22.5713 5.81386L20.8613 5.47187L19.1514 5.30087L16.9285 5.47187L15.5605 5.98485L14.8765 6.32684V6.66883L16.4155 8.03678L16.7575 8.37877L16.4155 9.06275L16.0735 9.40474L26.1622 19.6644L27.0171 19.3224H27.7011L28.3851 19.4934L31.463 21.5453L39.8417 29.9241L45.9975 36.4219L46.5105 37.7898V39.4998L45.9975 41.2097L45.1425 42.4067L43.2616 44.2876L42.2356 44.9716L41.2097 45.4846H40.0127L38.9867 45.1426L37.9608 44.2876L36.4218 42.4067L28.3851 33.8569L22.4003 27.7011L21.2033 26.1622L20.8613 25.3072V24.2813L21.7163 23.4263L11.9696 13.3376Z" fill="#474838"/>
<path d="M16.0734 19.8354L17.4414 21.2033L19.4933 23.4263L19.3223 23.9393V24.7942L19.4933 25.4782L19.6643 26.1622L20.0063 26.8462L20.5193 27.7011L21.2033 28.7271L12.4826 37.6188L12.1406 38.8158L11.4566 40.0127L9.74664 41.8937L7.69471 42.7486L5.81377 42.9196L4.10382 42.5777L2.39388 41.3807L1.19692 39.8417L0.512939 37.9608V35.9089L1.02592 34.3699L1.8809 33.173L2.90686 31.976L4.10382 31.292L5.30078 30.779L16.0734 19.8354Z" fill="#474838"/>
</svg>
