<svg width="57" height="55" viewBox="0 0 57 55" fill="none" xmlns="http://www.w3.org/2000/svg">
<path d="M49.3011 27.5466L41.1078 34.9866L41.2961 35.7871L41.767 36.0696L45.1103 36.2109L44.6865 37.6235L43.5564 39.3658L41.4374 41.8614L38.4237 44.4513L36.6344 45.5343L33.7149 46.6644L30.8896 47.3237L28.6765 47.4649L25.8512 47.3237H25.5687L24.156 54.4811L26.84 54.7165H30.2775L33.7149 54.1044L38.6592 52.3621L42.4262 50.1019L45.0161 48.03L47.3705 45.5343L49.0657 43.1799L50.6196 40.7313L51.4672 38.5182L51.7497 37.6235L54.8575 38.3298H55.5168L56.1289 38.0473V37.1526L50.6667 28.1588L50.1016 27.5466H49.3011Z" fill="#474838"/>
<path d="M22.979 46.6173L20.3421 45.8168L17.7522 44.5454L15.9158 43.274L13.8439 41.3434L12.0074 38.8948L10.4535 35.6928L9.65304 32.3967L6.30977 32.8205L2.68398 32.585V32.8205V33.621L3.29613 36.0225L4.52042 39.4599L6.73357 43.4153L10.171 47.512L12.7609 49.7722L16.3867 51.8912L20.0124 53.4922L22.979 46.6173Z" fill="#474838"/>
<path d="M17.6581 12.5254L20.4834 11.207L22.3198 10.6419L19.3533 4.52045L16.1984 5.60348L13.2789 7.34574L9.32348 10.6419L6.8278 13.891L4.94427 17.2814L4.23795 19.3532L0.612158 18.7882L1.14441e-05 19.1178V19.777L4.94427 29.4301L5.74477 29.8539L6.59236 29.8068L14.5503 22.1785V21.378L14.2677 21.1426L10.5949 20.9542L12.1488 18.0819L14.5503 15.0211L17.6581 12.5254Z" fill="#474838"/>
<path d="M32.5377 0.141265L31.9255 0L31.3605 0.423794L23.5438 7.43994V7.91082L30.1362 14.3148L31.7372 15.8687H32.3964L33.0086 15.4449V11.207L34.9392 11.4424L37.7645 12.6196L39.9776 14.3148L41.767 15.8687L43.933 18.6469L45.2986 21.2839L46.1933 24.58L53.1152 24.3917L51.8909 19.4474L49.5365 14.6444L46.4758 10.7361L43.368 8.14626L40.8723 6.54526L37.7645 5.13262L35.2688 4.52047L33.0086 4.19085H32.7731L32.8673 0.423794L32.5377 0.141265Z" fill="#474838"/>
</svg>
